<svg xmlns="http://www.w3.org/2000/svg" fill="none" viewBox="0 0 32 32"><path fill="url(#svg-41968c8c-c524-4340-ae33-38410098631c-a)" d="M12.555 8.935c1.537-2.397 2.447-4.611 2.921-6.177.182-.6.95-.845 1.406-.415 6.873 6.481 9.12 11.43 9.567 17.148.328 5.531-2.39 10.453-9.687 10.453-6.85 0-11.907-4.781-11.22-12.36.412-4.528 2.173-7.979 3.58-10.033.438-.639 1.351-.648 1.856-.06l1.259 1.466c.087.101.246.09.318-.022"/><path fill="url(#svg-7f87b0d0-db5c-494b-9752-a53485a7757e-b)" d="M12.555 8.935c1.537-2.397 2.447-4.611 2.921-6.177.182-.6.95-.845 1.406-.415 6.873 6.481 9.12 11.43 9.567 17.148.328 5.531-2.39 10.453-9.687 10.453-6.85 0-11.907-4.781-11.22-12.36.412-4.528 2.173-7.979 3.58-10.033.438-.639 1.351-.648 1.856-.06l1.259 1.466c.087.101.246.09.318-.022"/><path fill="url(#svg-f61c6a56-921e-4e16-ad28-57fd6ee8839e-c)" d="M12.555 8.935c1.537-2.397 2.447-4.611 2.921-6.177.182-.6.95-.845 1.406-.415 6.873 6.481 9.12 11.43 9.567 17.148.328 5.531-2.39 10.453-9.687 10.453-6.85 0-11.907-4.781-11.22-12.36.412-4.528 2.173-7.979 3.58-10.033.438-.639 1.351-.648 1.856-.06l1.259 1.466c.087.101.246.09.318-.022"/><path fill="url(#svg-11257a88-3909-4348-becb-f9b2c5bbaaaa-d)" d="M12.555 8.935c1.537-2.397 2.447-4.611 2.921-6.177.182-.6.95-.845 1.406-.415 6.873 6.481 9.12 11.43 9.567 17.148.328 5.531-2.39 10.453-9.687 10.453-6.85 0-11.907-4.781-11.22-12.36.412-4.528 2.173-7.979 3.58-10.033.438-.639 1.351-.648 1.856-.06l1.259 1.466c.087.101.246.09.318-.022"/><path fill="url(#svg-65a2c3f2-bbbe-46e6-ac01-8d2a242c6dc2-e)" d="M12.555 8.935c1.537-2.397 2.447-4.611 2.921-6.177.182-.6.95-.845 1.406-.415 6.873 6.481 9.12 11.43 9.567 17.148.328 5.531-2.39 10.453-9.687 10.453-6.85 0-11.907-4.781-11.22-12.36.412-4.528 2.173-7.979 3.58-10.033.438-.639 1.351-.648 1.856-.06l1.259 1.466c.087.101.246.09.318-.022"/><path fill="url(#svg-80a5b26f-df25-478d-9da3-8aae16702e4f-f)" d="M12.555 8.935c1.537-2.397 2.447-4.611 2.921-6.177.182-.6.95-.845 1.406-.415 6.873 6.481 9.12 11.43 9.567 17.148.328 5.531-2.39 10.453-9.687 10.453-6.85 0-11.907-4.781-11.22-12.36.412-4.528 2.173-7.979 3.58-10.033.438-.639 1.351-.648 1.856-.06l1.259 1.466c.087.101.246.09.318-.022"/><path fill="url(#svg-2e3c0054-89aa-4d61-8c25-212d0b4c2db5-g)" d="M12.555 8.935c1.537-2.397 2.447-4.611 2.921-6.177.182-.6.95-.845 1.406-.415 6.873 6.481 9.12 11.43 9.567 17.148.328 5.531-2.39 10.453-9.687 10.453-6.85 0-11.907-4.781-11.22-12.36.412-4.528 2.173-7.979 3.58-10.033.438-.639 1.351-.648 1.856-.06l1.259 1.466c.087.101.246.09.318-.022"/><path fill="url(#svg-db04b813-cc5c-4bac-963f-2b15ca378995-h)" d="M12.555 8.935c1.537-2.397 2.447-4.611 2.921-6.177.182-.6.95-.845 1.406-.415 6.873 6.481 9.12 11.43 9.567 17.148.328 5.531-2.39 10.453-9.687 10.453-6.85 0-11.907-4.781-11.22-12.36.412-4.528 2.173-7.979 3.58-10.033.438-.639 1.351-.648 1.856-.06l1.259 1.466c.087.101.246.09.318-.022"/><g filter="url(#svg-03cf2c66-ecff-4a41-addd-f3dc472183bb-i)"><path fill="url(#svg-6a3cbd45-f0ea-4ec5-ac3e-f4155586f6dc-j)" d="M10.178 19.877c1.302-3.1 3.975-6.529 5.78-8.39a1.336 1.336 0 0 1 1.872-.038c3.461 3.189 4.503 6.072 5.387 9.428.92 3.492 0 9.118-6.921 9.118-5.96 0-8.026-5.578-6.118-10.118"/><path fill="url(#svg-7221790b-9b65-409e-82e3-525717faa8e7-k)" d="M10.178 19.877c1.302-3.1 3.975-6.529 5.78-8.39a1.336 1.336 0 0 1 1.872-.038c3.461 3.189 4.503 6.072 5.387 9.428.92 3.492 0 9.118-6.921 9.118-5.96 0-8.026-5.578-6.118-10.118"/><path fill="url(#svg-5e0b3536-e1c5-4a5a-a8c0-dc23acb729d2-l)" d="M10.178 19.877c1.302-3.1 3.975-6.529 5.78-8.39a1.336 1.336 0 0 1 1.872-.038c3.461 3.189 4.503 6.072 5.387 9.428.92 3.492 0 9.118-6.921 9.118-5.96 0-8.026-5.578-6.118-10.118"/></g><path fill="url(#svg-cbf07f72-a0a2-4c8a-b93e-a8041f351445-m)" d="M10.178 19.877c1.302-3.1 3.975-6.529 5.78-8.39a1.336 1.336 0 0 1 1.872-.038c3.461 3.189 4.503 6.072 5.387 9.428.92 3.492 0 9.118-6.921 9.118-5.96 0-8.026-5.578-6.118-10.118"/><path fill="url(#svg-9e869f64-ef3e-44cf-9152-1e8f6bb3817a-n)" d="M10.178 19.877c1.302-3.1 3.975-6.529 5.78-8.39a1.336 1.336 0 0 1 1.872-.038c3.461 3.189 4.503 6.072 5.387 9.428.92 3.492 0 9.118-6.921 9.118-5.96 0-8.026-5.578-6.118-10.118"/><g filter="url(#svg-935c662e-3bf8-4cbd-bd12-7926117ac68e-o)"><path fill="url(#svg-23f95968-5985-419f-9f67-bb8ef3f9ffce-p)" d="M11.814 11.539c2.315-3.39 3.67-7.058 4.083-7.962-.603 4.634-2.36 8.028-5.668 12.398-2.646 3.496-3.124 6.488-3.101 7.217-.827-5.562 1.791-7.416 4.686-11.653"/></g><g filter="url(#svg-064882a0-9e7f-496a-abca-60f0ddbe6a5e-q)"><path fill="url(#svg-fd1cb9fd-f2b6-4e55-aa30-de275db49abe-r)" d="M9.814 7.874c-1.3 1.614-3.884 6.09-3.82 11.084 1.28-5.122 4.275-6.736 3.82-11.084"/></g><defs><radialGradient id="svg-41968c8c-c524-4340-ae33-38410098631c-a" cx="0" cy="0" r="1" gradientTransform="rotate(180.526 12.046 9.805)scale(17.0988 25.7861)" gradientUnits="userSpaceOnUse"><stop stop-color="#ff953d"/><stop offset="1" stop-color="#ff5141"/></radialGradient><radialGradient id="svg-7f87b0d0-db5c-494b-9752-a53485a7757e-b" cx="0" cy="0" r="1" gradientTransform="rotate(202.063 6.712 6.816)scale(10.3441 17.8495)" gradientUnits="userSpaceOnUse"><stop stop-color="#ce5327"/><stop offset="1" stop-color="#ce5327" stop-opacity="0"/></radialGradient><radialGradient id="svg-11257a88-3909-4348-becb-f9b2c5bbaaaa-d" cx="0" cy="0" r="1" gradientTransform="rotate(24.015 -31.353 18.85)scale(3.10465 25.6991)" gradientUnits="userSpaceOnUse"><stop stop-color="#ffaa7b"/><stop offset="1" stop-color="#ffaa7b" stop-opacity="0"/></radialGradient><radialGradient id="svg-65a2c3f2-bbbe-46e6-ac01-8d2a242c6dc2-e" cx="0" cy="0" r="1" gradientTransform="matrix(.843 3.74668 -4.675 1.05188 9.31 6.25)" gradientUnits="userSpaceOnUse"><stop stop-color="#ff5e47"/><stop offset="1" stop-color="#ff5e47" stop-opacity="0"/></radialGradient><radialGradient id="svg-80a5b26f-df25-478d-9da3-8aae16702e4f-f" cx="0" cy="0" r="1" gradientTransform="rotate(87.882 7.506 9.207)scale(10.1374 9.38321)" gradientUnits="userSpaceOnUse"><stop stop-color="#ff2f3c"/><stop offset="1" stop-color="#ff2f3c" stop-opacity="0"/></radialGradient><radialGradient id="svg-2e3c0054-89aa-4d61-8c25-212d0b4c2db5-g" cx="0" cy="0" r="1" gradientTransform="matrix(2.07795 .9835 -1.9737 4.17002 13.9 4.8)" gradientUnits="userSpaceOnUse"><stop stop-color="#ff846c"/><stop offset="1" stop-color="#ff846c" stop-opacity="0"/></radialGradient><radialGradient id="svg-db04b813-cc5c-4bac-963f-2b15ca378995-h" cx="0" cy="0" r="1" gradientTransform="rotate(113.224 3.523 8.21)scale(2.27837 .52212)" gradientUnits="userSpaceOnUse"><stop stop-color="#ffa682"/><stop offset="1" stop-color="#ffa682" stop-opacity="0"/></radialGradient><radialGradient id="svg-6a3cbd45-f0ea-4ec5-ac3e-f4155586f6dc-j" cx="0" cy="0" r="1" gradientTransform="rotate(191.442 11.823 11.126)scale(10.0291 12.4891)" gradientUnits="userSpaceOnUse"><stop stop-color="#ffda2f"/><stop offset="1" stop-color="#ff8e41"/></radialGradient><radialGradient id="svg-7221790b-9b65-409e-82e3-525717faa8e7-k" cx="0" cy="0" r="1" gradientTransform="rotate(69.044 -.045 13.31)scale(14.1425 12.2879)" gradientUnits="userSpaceOnUse"><stop stop-color="#fd5639"/><stop offset="1" stop-color="#fe5533" stop-opacity="0"/></radialGradient><radialGradient id="svg-5e0b3536-e1c5-4a5a-a8c0-dc23acb729d2-l" cx="0" cy="0" r="1" gradientTransform="rotate(174.239 9.1 10.798)scale(9.79866 23.9914)" gradientUnits="userSpaceOnUse"><stop offset=".628" stop-color="#d7812d" stop-opacity="0"/><stop offset="1" stop-color="#d7812d"/></radialGradient><radialGradient id="svg-9e869f64-ef3e-44cf-9152-1e8f6bb3817a-n" cx="0" cy="0" r="1" gradientTransform="rotate(143.063 8.353 13.24)scale(16.0546 11.6174)" gradientUnits="userSpaceOnUse"><stop offset=".772" stop-color="#f18a52" stop-opacity="0"/><stop offset="1" stop-color="#f18a52"/></radialGradient><linearGradient id="svg-f61c6a56-921e-4e16-ad28-57fd6ee8839e-c" x1="18.336" x2="18.336" y1="29.944" y2="24.846" gradientUnits="userSpaceOnUse"><stop stop-color="#ff7583"/><stop offset="1" stop-color="#ff7583" stop-opacity="0"/></linearGradient><linearGradient id="svg-cbf07f72-a0a2-4c8a-b93e-a8041f351445-m" x1="16.503" x2="16.503" y1="10.612" y2="14.259" gradientUnits="userSpaceOnUse"><stop stop-color="#f95131"/><stop offset="1" stop-color="#f95131" stop-opacity="0"/></linearGradient><linearGradient id="svg-23f95968-5985-419f-9f67-bb8ef3f9ffce-p" x1="14.996" x2="7.655" y1="4.255" y2="22.732" gradientUnits="userSpaceOnUse"><stop stop-color="#ff7558"/><stop offset="1" stop-color="#f38758"/></linearGradient><linearGradient id="svg-fd1cb9fd-f2b6-4e55-aa30-de275db49abe-r" x1="9.541" x2="5.582" y1="8.144" y2="19.479" gradientUnits="userSpaceOnUse"><stop stop-color="#ff815b"/><stop offset="1" stop-color="#ff9c6d"/></linearGradient><filter id="svg-03cf2c66-ecff-4a41-addd-f3dc472183bb-i" width="14.525" height="18.91" x="9.49" y="11.085" color-interpolation-filters="sRGB" filterUnits="userSpaceOnUse"><feFlood flood-opacity="0" result="BackgroundImageFix"/><feBlend in="SourceGraphic" in2="BackgroundImageFix" result="shape"/><feColorMatrix in="SourceAlpha" result="hardAlpha" values="0 0 0 0 0 0 0 0 0 0 0 0 0 0 0 0 0 0 127 0"/><feOffset dx=".5"/><feGaussianBlur stdDeviation=".25"/><feComposite in2="hardAlpha" k2="-1" k3="1" operator="arithmetic"/><feColorMatrix values="0 0 0 0 0.952941 0 0 0 0 0.615686 0 0 0 0 0.364706 0 0 0 1 0"/><feBlend in2="shape" result="effect1_innerShadow_18_15821"/></filter><filter id="svg-935c662e-3bf8-4cbd-bd12-7926117ac68e-o" width="11.424" height="22.115" x="5.723" y="2.327" color-interpolation-filters="sRGB" filterUnits="userSpaceOnUse"><feFlood flood-opacity="0" result="BackgroundImageFix"/><feBlend in="SourceGraphic" in2="BackgroundImageFix" result="shape"/><feGaussianBlur result="effect1_foregroundBlur_18_15821" stdDeviation=".625"/></filter><filter id="svg-064882a0-9e7f-496a-abca-60f0ddbe6a5e-q" width="6.868" height="14.084" x="4.492" y="6.374" color-interpolation-filters="sRGB" filterUnits="userSpaceOnUse"><feFlood flood-opacity="0" result="BackgroundImageFix"/><feBlend in="SourceGraphic" in2="BackgroundImageFix" result="shape"/><feGaussianBlur result="effect1_foregroundBlur_18_15821" stdDeviation=".75"/></filter></defs></svg>