<svg xmlns="http://www.w3.org/2000/svg" fill="none" viewBox="0 0 32 32"><g filter="url(#svg-8c5dab34-f711-4bb7-b714-803ca010a2f7-a)"><circle cx="16" cy="16.414" r="10.875" fill="url(#svg-1fa65a7b-568d-4c59-8a3b-511897ff24e6-b)"/></g><g filter="url(#svg-ffbc1809-f82e-4769-8b7d-5d832f4f3fdc-c)"><path fill="url(#svg-3838335a-86be-4b4c-bb4b-cb06e1d21c20-d)" fill-rule="evenodd" d="M16 30.383c7.715 0 13.969-6.254 13.969-13.969S23.715 2.445 16 2.445 2.031 8.7 2.031 16.415c0 7.714 6.254 13.968 13.969 13.968m0-3.094c6.006 0 10.875-4.869 10.875-10.875S22.006 5.54 16 5.54 5.125 10.408 5.125 16.414 9.994 27.29 16 27.29" clip-rule="evenodd"/></g><g filter="url(#svg-0da376f5-9703-495e-8def-deebeae0a487-e)"><path fill="#dc7b3c" fill-rule="evenodd" d="M9.913 11.315a.6.6 0 0 0-.278.507v.28a.5.5 0 0 0 .438.496v7.597h-.108a.7.7 0 0 0-.677.524l-.31 1.186a.5.5 0 0 0 .484.626h12.45a.5.5 0 0 0 .488-.612l-.272-1.181a.7.7 0 0 0-.683-.543h-.107v-7.6a.5.5 0 0 0 .422-.493v-.28a.6.6 0 0 0-.277-.507L16.1 7.89a.75.75 0 0 0-.806 0zm9.816 8.88v-7.593h-1.61v7.593zm-3.219 0v-7.593H14.9v7.593zm-3.219 0v-7.593h-1.609v7.593z" clip-rule="evenodd"/></g><g filter="url(#svg-6f817396-0313-487f-9df0-3ee56233c63d-f)"><path fill="#ffc546" d="M9.948 11.54a.6.6 0 0 1 .277-.506l5.383-3.426a.75.75 0 0 1 .805 0l5.382 3.426a.6.6 0 0 1 .278.506v.28a.5.5 0 0 1-.5.5H10.448a.5.5 0 0 1-.5-.5z"/></g><path fill="url(#svg-17be91c0-088d-43ed-85fe-03e7ce796002-g)" d="M9.948 11.54a.6.6 0 0 1 .277-.506l5.383-3.426a.75.75 0 0 1 .805 0l5.382 3.426a.6.6 0 0 1 .278.506v.28a.5.5 0 0 1-.5.5H10.448a.5.5 0 0 1-.5-.5z"/><path fill="url(#svg-ddcb201b-66f8-4b70-b48d-f8a2a3b1762a-h)" d="M10.385 12.117a.25.25 0 0 1 .25-.25h1.11a.25.25 0 0 1 .25.25v8.016h-1.61z"/><path fill="url(#svg-223b7203-8908-48e4-8c43-ad26d5005479-i)" d="M10.385 12.117a.25.25 0 0 1 .25-.25h1.11a.25.25 0 0 1 .25.25v8.016h-1.61z"/><path fill="url(#svg-57e54c79-9c70-43bf-898e-e4f1e98fc475-j)" d="M13.604 11.867h1.609v8.266h-1.609z"/><path fill="url(#svg-79be0edd-8fde-4565-9edd-796069c6980c-k)" d="M13.604 11.867h1.609v8.266h-1.609z"/><path fill="url(#svg-4d02ed96-f0aa-41c4-bfb2-b338a64c2372-l)" d="M16.823 11.867h1.609v8.266h-1.609z"/><path fill="url(#svg-2dd8fcbc-efd5-44b5-9e07-945ab1a0a97d-m)" d="M16.823 11.867h1.609v8.266h-1.609z"/><path fill="url(#svg-00931234-1b26-423c-b1fb-b70902f37171-n)" d="M20.041 11.867h1.609v8.266h-1.609z"/><path fill="url(#svg-7df30eef-cfb1-4914-ab4d-be319cceb04e-o)" d="M20.041 11.867h1.609v8.266h-1.609z"/><g filter="url(#svg-8d360a51-19bf-43e0-bfb2-46edc00a5816-p)"><path fill="#ffc248" d="M9.6 20.437a.7.7 0 0 1 .678-.523h11.48a.7.7 0 0 1 .682.543l.273 1.18a.5.5 0 0 1-.488.613H9.775a.5.5 0 0 1-.484-.626z"/></g><defs><linearGradient id="svg-1fa65a7b-568d-4c59-8a3b-511897ff24e6-b" x1="11.563" x2="23.313" y1="21.852" y2="7.039" gradientUnits="userSpaceOnUse"><stop stop-color="#f19d48"/><stop offset="1" stop-color="#e89a44"/></linearGradient><linearGradient id="svg-3838335a-86be-4b4c-bb4b-cb06e1d21c20-d" x1="16" x2="16" y1="2.445" y2="30.383" gradientUnits="userSpaceOnUse"><stop stop-color="#ffc444"/><stop offset="1" stop-color="#ffc24b"/></linearGradient><linearGradient id="svg-17be91c0-088d-43ed-85fe-03e7ce796002-g" x1="19.313" x2="18.906" y1="9.289" y2="9.906" gradientUnits="userSpaceOnUse"><stop offset=".459" stop-color="#ffca3f"/><stop offset="1" stop-color="#ffca3f" stop-opacity="0"/></linearGradient><linearGradient id="svg-ddcb201b-66f8-4b70-b48d-f8a2a3b1762a-h" x1="10.531" x2="11.313" y1="15.059" y2="15.059" gradientUnits="userSpaceOnUse"><stop offset=".167" stop-color="#ffb33b"/><stop offset="1" stop-color="#ffc047"/></linearGradient><linearGradient id="svg-223b7203-8908-48e4-8c43-ad26d5005479-i" x1="11.995" x2="11.609" y1="16.686" y2="16.686" gradientUnits="userSpaceOnUse"><stop offset=".067" stop-color="#ffc34c"/><stop offset="1" stop-color="#ffc34c" stop-opacity="0"/></linearGradient><linearGradient id="svg-57e54c79-9c70-43bf-898e-e4f1e98fc475-j" x1="13.75" x2="14.531" y1="15.059" y2="15.059" gradientUnits="userSpaceOnUse"><stop offset=".167" stop-color="#ffb33b"/><stop offset="1" stop-color="#ffc047"/></linearGradient><linearGradient id="svg-79be0edd-8fde-4565-9edd-796069c6980c-k" x1="15.213" x2="14.828" y1="16.686" y2="16.686" gradientUnits="userSpaceOnUse"><stop offset=".067" stop-color="#ffc34c"/><stop offset="1" stop-color="#ffc34c" stop-opacity="0"/></linearGradient><linearGradient id="svg-4d02ed96-f0aa-41c4-bfb2-b338a64c2372-l" x1="16.969" x2="17.75" y1="15.059" y2="15.059" gradientUnits="userSpaceOnUse"><stop offset=".167" stop-color="#ffb33b"/><stop offset="1" stop-color="#ffc047"/></linearGradient><linearGradient id="svg-2dd8fcbc-efd5-44b5-9e07-945ab1a0a97d-m" x1="18.432" x2="18.047" y1="16.686" y2="16.686" gradientUnits="userSpaceOnUse"><stop offset=".067" stop-color="#ffc34c"/><stop offset="1" stop-color="#ffc34c" stop-opacity="0"/></linearGradient><linearGradient id="svg-00931234-1b26-423c-b1fb-b70902f37171-n" x1="20.188" x2="20.969" y1="15.059" y2="15.059" gradientUnits="userSpaceOnUse"><stop offset=".167" stop-color="#ffb33b"/><stop offset="1" stop-color="#ffc047"/></linearGradient><linearGradient id="svg-7df30eef-cfb1-4914-ab4d-be319cceb04e-o" x1="21.651" x2="21.266" y1="16.686" y2="16.686" gradientUnits="userSpaceOnUse"><stop offset=".067" stop-color="#ffc34c"/><stop offset="1" stop-color="#ffc34c" stop-opacity="0"/></linearGradient><filter id="svg-8c5dab34-f711-4bb7-b714-803ca010a2f7-a" width="22" height="22" x="4.875" y="5.539" color-interpolation-filters="sRGB" filterUnits="userSpaceOnUse"><feFlood flood-opacity="0" result="BackgroundImageFix"/><feBlend in="SourceGraphic" in2="BackgroundImageFix" result="shape"/><feColorMatrix in="SourceAlpha" result="hardAlpha" values="0 0 0 0 0 0 0 0 0 0 0 0 0 0 0 0 0 0 127 0"/><feOffset dx="-.25" dy=".25"/><feGaussianBlur stdDeviation=".5"/><feComposite in2="hardAlpha" k2="-1" k3="1" operator="arithmetic"/><feColorMatrix values="0 0 0 0 0.831373 0 0 0 0 0.45098 0 0 0 0 0.196078 0 0 0 1 0"/><feBlend in2="shape" result="effect1_innerShadow_18_21332"/></filter><filter id="svg-ffbc1809-f82e-4769-8b7d-5d832f4f3fdc-c" width="28.538" height="28.538" x="1.731" y="2.145" color-interpolation-filters="sRGB" filterUnits="userSpaceOnUse"><feFlood flood-opacity="0" result="BackgroundImageFix"/><feBlend in="SourceGraphic" in2="BackgroundImageFix" result="shape"/><feColorMatrix in="SourceAlpha" result="hardAlpha" values="0 0 0 0 0 0 0 0 0 0 0 0 0 0 0 0 0 0 127 0"/><feOffset dx=".3" dy=".3"/><feGaussianBlur stdDeviation=".3"/><feComposite in2="hardAlpha" k2="-1" k3="1" operator="arithmetic"/><feColorMatrix values="0 0 0 0 0.886275 0 0 0 0 0.662745 0 0 0 0 0.235294 0 0 0 1 0"/><feBlend in2="shape" result="effect1_innerShadow_18_21332"/><feColorMatrix in="SourceAlpha" result="hardAlpha" values="0 0 0 0 0 0 0 0 0 0 0 0 0 0 0 0 0 0 127 0"/><feOffset dx=".3" dy="-.3"/><feGaussianBlur stdDeviation=".3"/><feComposite in2="hardAlpha" k2="-1" k3="1" operator="arithmetic"/><feColorMatrix values="0 0 0 0 0.956863 0 0 0 0 0.607843 0 0 0 0 0.294118 0 0 0 1 0"/><feBlend in2="effect1_innerShadow_18_21332" result="effect2_innerShadow_18_21332"/><feColorMatrix in="SourceAlpha" result="hardAlpha" values="0 0 0 0 0 0 0 0 0 0 0 0 0 0 0 0 0 0 127 0"/><feOffset dy="-.3"/><feGaussianBlur stdDeviation=".3"/><feComposite in2="hardAlpha" k2="-1" k3="1" operator="arithmetic"/><feColorMatrix values="0 0 0 0 0.956863 0 0 0 0 0.607843 0 0 0 0 0.294118 0 0 0 1 0"/><feBlend in2="effect2_innerShadow_18_21332" result="effect3_innerShadow_18_21332"/><feColorMatrix in="SourceAlpha" result="hardAlpha" values="0 0 0 0 0 0 0 0 0 0 0 0 0 0 0 0 0 0 127 0"/><feOffset dx="-.3" dy=".3"/><feGaussianBlur stdDeviation=".3"/><feComposite in2="hardAlpha" k2="-1" k3="1" operator="arithmetic"/><feColorMatrix values="0 0 0 0 1 0 0 0 0 0.882353 0 0 0 0 0.337255 0 0 0 1 0"/><feBlend in2="effect3_innerShadow_18_21332" result="effect4_innerShadow_18_21332"/></filter><filter id="svg-0da376f5-9703-495e-8def-deebeae0a487-e" width="14.651" height="15.959" x="8.362" y="7.172" color-interpolation-filters="sRGB" filterUnits="userSpaceOnUse"><feFlood flood-opacity="0" result="BackgroundImageFix"/><feBlend in="SourceGraphic" in2="BackgroundImageFix" result="shape"/><feGaussianBlur result="effect1_foregroundBlur_18_21332" stdDeviation=".3"/></filter><filter id="svg-6f817396-0313-487f-9df0-3ee56233c63d-f" width="12.275" height="5.33" x="9.948" y="7.241" color-interpolation-filters="sRGB" filterUnits="userSpaceOnUse"><feFlood flood-opacity="0" result="BackgroundImageFix"/><feBlend in="SourceGraphic" in2="BackgroundImageFix" result="shape"/><feColorMatrix in="SourceAlpha" result="hardAlpha" values="0 0 0 0 0 0 0 0 0 0 0 0 0 0 0 0 0 0 127 0"/><feOffset dy="-.25"/><feGaussianBlur stdDeviation=".25"/><feComposite in2="hardAlpha" k2="-1" k3="1" operator="arithmetic"/><feColorMatrix values="0 0 0 0 0.980392 0 0 0 0 0.647059 0 0 0 0 0.172549 0 0 0 1 0"/><feBlend in2="shape" result="effect1_innerShadow_18_21332"/><feColorMatrix in="SourceAlpha" result="hardAlpha" values="0 0 0 0 0 0 0 0 0 0 0 0 0 0 0 0 0 0 127 0"/><feOffset dx=".15" dy=".25"/><feGaussianBlur stdDeviation=".25"/><feComposite in2="hardAlpha" k2="-1" k3="1" operator="arithmetic"/><feColorMatrix values="0 0 0 0 0.980392 0 0 0 0 0.647059 0 0 0 0 0.172549 0 0 0 1 0"/><feBlend in2="effect1_innerShadow_18_21332" result="effect2_innerShadow_18_21332"/></filter><filter id="svg-8d360a51-19bf-43e0-bfb2-46edc00a5816-p" width="13.951" height="2.836" x="9.024" y="19.664" color-interpolation-filters="sRGB" filterUnits="userSpaceOnUse"><feFlood flood-opacity="0" result="BackgroundImageFix"/><feBlend in="SourceGraphic" in2="BackgroundImageFix" result="shape"/><feColorMatrix in="SourceAlpha" result="hardAlpha" values="0 0 0 0 0 0 0 0 0 0 0 0 0 0 0 0 0 0 127 0"/><feOffset dx=".25" dy="-.25"/><feGaussianBlur stdDeviation=".2"/><feComposite in2="hardAlpha" k2="-1" k3="1" operator="arithmetic"/><feColorMatrix values="0 0 0 0 0.992157 0 0 0 0 0.658824 0 0 0 0 0.0705882 0 0 0 1 0"/><feBlend in2="shape" result="effect1_innerShadow_18_21332"/><feColorMatrix in="SourceAlpha" result="hardAlpha" values="0 0 0 0 0 0 0 0 0 0 0 0 0 0 0 0 0 0 127 0"/><feOffset dx="-.25" dy=".25"/><feGaussianBlur stdDeviation=".2"/><feComposite in2="hardAlpha" k2="-1" k3="1" operator="arithmetic"/><feColorMatrix values="0 0 0 0 1 0 0 0 0 0.8 0 0 0 0 0.290196 0 0 0 1 0"/><feBlend in2="effect1_innerShadow_18_21332" result="effect2_innerShadow_18_21332"/></filter></defs></svg>