<svg xmlns="http://www.w3.org/2000/svg" fill="none" viewBox="0 0 32 32"><path fill="url(#svg-a50e28fb-700e-4f07-8de4-b148898e19f5-a)" d="M2 15.99c0-1.69 1.38-3.06 3.06-3.06h21.85c1.69 0 3.06 1.38 3.06 3.06 0 1.69-1.38 3.06-3.06 3.06H5.06C3.38 19.05 2 17.67 2 15.99"/><path fill="url(#svg-e6cf42c3-da61-42a9-9f15-6990b915721c-b)" d="M2 15.99c0-1.69 1.38-3.06 3.06-3.06h21.85c1.69 0 3.06 1.38 3.06 3.06 0 1.69-1.38 3.06-3.06 3.06H5.06C3.38 19.05 2 17.67 2 15.99"/><path fill="url(#svg-0b16b9e5-ca52-4539-b9a9-8a7fdc57f9b3-c)" d="M2 15.99c0-1.69 1.38-3.06 3.06-3.06h21.85c1.69 0 3.06 1.38 3.06 3.06 0 1.69-1.38 3.06-3.06 3.06H5.06C3.38 19.05 2 17.67 2 15.99"/><defs><radialGradient id="svg-e6cf42c3-da61-42a9-9f15-6990b915721c-b" cx="0" cy="0" r="1" gradientTransform="rotate(92.942 .75 15.923)scale(13.7536 21.0011)" gradientUnits="userSpaceOnUse"><stop offset=".609" stop-color="#423473" stop-opacity="0"/><stop offset=".704" stop-color="#41366a"/></radialGradient><radialGradient id="svg-0b16b9e5-ca52-4539-b9a9-8a7fdc57f9b3-c" cx="0" cy="0" r="1" gradientTransform="rotate(130.357 10.527 13.82)scale(1.629)" gradientUnits="userSpaceOnUse"><stop stop-color="#9c92d2"/><stop offset="1" stop-color="#9d93d3" stop-opacity="0"/></radialGradient><linearGradient id="svg-a50e28fb-700e-4f07-8de4-b148898e19f5-a" x1="15.985" x2="15.985" y1="12.93" y2="19.05" gradientUnits="userSpaceOnUse"><stop stop-color="#655898"/><stop offset=".214" stop-color="#8276bd"/><stop offset=".335" stop-color="#897ec1"/><stop offset=".523" stop-color="#7966c1"/><stop offset=".863" stop-color="#8842ec"/><stop offset="1" stop-color="#6035be"/></linearGradient></defs></svg>