<svg xmlns="http://www.w3.org/2000/svg" fill="none" viewBox="0 0 32 32"><path fill="url(#svg-5e5475ca-c130-4f35-8258-9dfb7cb6d273-a)" d="M28.928 19h-2.14c-.45 0-.81-.36-.81-.81v-7.77c0-3.09-1.42-6.27-3.82-8.18-.19-.16-.44-.24-.69-.24s-.5.08-.7.24c-1.75 1.4-2.97 3.6-3.5 5.76h-2.58c-.53-2.16-1.75-4.36-3.5-5.76-.19-.16-.44-.24-.69-.24s-.5.08-.7.24c-2.39 1.91-3.81 5.08-3.81 8.18v7.77c0 .45-.36.81-.81.81h-2.14c-.41 0-.71.4-.6.8 1.66 5.88 7.06 10.2 13.48 10.2h.14c6.41 0 11.82-4.31 13.48-10.2.11-.4-.19-.8-.61-.8"/><path fill="url(#svg-3bf16ab3-290f-43f2-8c49-9a9e43070648-b)" d="M28.928 19h-2.14c-.45 0-.81-.36-.81-.81v-7.77c0-3.09-1.42-6.27-3.82-8.18-.19-.16-.44-.24-.69-.24s-.5.08-.7.24c-1.75 1.4-2.97 3.6-3.5 5.76h-2.58c-.53-2.16-1.75-4.36-3.5-5.76-.19-.16-.44-.24-.69-.24s-.5.08-.7.24c-2.39 1.91-3.81 5.08-3.81 8.18v7.77c0 .45-.36.81-.81.81h-2.14c-.41 0-.71.4-.6.8 1.66 5.88 7.06 10.2 13.48 10.2h.14c6.41 0 11.82-4.31 13.48-10.2.11-.4-.19-.8-.61-.8"/><path fill="url(#svg-88ac9dbc-b0ff-4713-aad0-5eb0892805d4-c)" d="M28.928 19h-2.14c-.45 0-.81-.36-.81-.81v-7.77c0-3.09-1.42-6.27-3.82-8.18-.19-.16-.44-.24-.69-.24s-.5.08-.7.24c-1.75 1.4-2.97 3.6-3.5 5.76h-2.58c-.53-2.16-1.75-4.36-3.5-5.76-.19-.16-.44-.24-.69-.24s-.5.08-.7.24c-2.39 1.91-3.81 5.08-3.81 8.18v7.77c0 .45-.36.81-.81.81h-2.14c-.41 0-.71.4-.6.8 1.66 5.88 7.06 10.2 13.48 10.2h.14c6.41 0 11.82-4.31 13.48-10.2.11-.4-.19-.8-.61-.8"/><ellipse cx="15.988" cy="17.631" fill="url(#svg-f36f1c3b-1bb3-415b-ad8b-6076eef972af-d)" fill-opacity=".5" rx="9.767" ry="9.663"/><g filter="url(#svg-ae40d816-e253-4fc3-b167-17c0c05d39ff-e)"><path stroke="url(#svg-8dd191b1-067f-42a0-9e49-7cdc4a2de559-f)" stroke-linecap="round" stroke-width=".25" d="M20.424 3.89c-.437.553-1.703 2.141-2.078 4.079"/></g><g filter="url(#svg-a0d6c2c4-ae92-405f-83f1-f2097c379ba3-g)"><path stroke="#ffb160" stroke-linecap="round" stroke-width=".25" d="M24.074 5.194c.75 1.03 1.5 3.062 1.5 6.875"/></g><g filter="url(#svg-b6922deb-d805-41fb-af51-031e5a8a8fb2-h)"><path stroke="#ffb160" stroke-linecap="round" stroke-width=".25" d="M12.488 4.35c.494.679 1.358 2.353 1.514 3.603"/></g><path fill="url(#svg-9b20b29b-a2e2-4547-8bfb-b6530c441adb-i)" d="M22.169 2.24c-.2-.16-.45-.24-.7-.24s-.5.08-.7.24c-1.2.97-2.16 2.31-2.81 3.76h7.07c-.66-1.47-1.63-2.78-2.86-3.76"/><path fill="url(#svg-70f62e1f-7a45-4f9d-952b-f5af8db1482b-j)" d="M22.169 2.24c-.2-.16-.45-.24-.7-.24s-.5.08-.7.24c-1.2.97-2.16 2.31-2.81 3.76h7.07c-.66-1.47-1.63-2.78-2.86-3.76"/><path fill="url(#svg-e523c332-8c66-456a-af30-20d0b5e6ac77-k)" d="M22.169 2.24c-.2-.16-.45-.24-.7-.24s-.5.08-.7.24c-1.2.97-2.16 2.31-2.81 3.76h7.07c-.66-1.47-1.63-2.78-2.86-3.76"/><path fill="url(#svg-19abcdef-f1a6-4c00-9281-7818d617023b-l)" d="M23.983 12.002c.15.202.495.099.495-.153v-1.43c0-2.48-1.06-4.81-2.89-6.43a.196.196 0 0 0-.25.001 8.6 8.6 0 0 0-2.475 3.834c-.096.307.091.624.396.73a10 10 0 0 1 4.724 3.448"/><path fill="url(#svg-a3ee020d-4c22-4122-9485-6181ead6ba84-m)" d="M23.983 12.002c.15.202.495.099.495-.153v-1.43c0-2.48-1.06-4.81-2.89-6.43a.196.196 0 0 0-.25.001 8.6 8.6 0 0 0-2.475 3.834c-.096.307.091.624.396.73a10 10 0 0 1 4.724 3.448"/><path fill="url(#svg-e476c6b5-8f45-40a7-a889-e6e95045dbc1-n)" d="M23.983 12.002c.15.202.495.099.495-.153v-1.43c0-2.48-1.06-4.81-2.89-6.43a.196.196 0 0 0-.25.001 8.6 8.6 0 0 0-2.475 3.834c-.096.307.091.624.396.73a10 10 0 0 1 4.724 3.448"/><path fill="url(#svg-32d69496-b71a-40ca-9702-681f2128a003-o)" d="M23.983 12.002c.15.202.495.099.495-.153v-1.43c0-2.48-1.06-4.81-2.89-6.43a.196.196 0 0 0-.25.001 8.6 8.6 0 0 0-2.475 3.834c-.096.307.091.624.396.73a10 10 0 0 1 4.724 3.448"/><path fill="url(#svg-90cd4873-92f6-4bec-984a-c3b6b7de8731-p)" d="M23.983 12.002c.15.202.495.099.495-.153v-1.43c0-2.48-1.06-4.81-2.89-6.43a.196.196 0 0 0-.25.001 8.6 8.6 0 0 0-2.475 3.834c-.096.307.091.624.396.73a10 10 0 0 1 4.724 3.448"/><path fill="url(#svg-53d3c5fc-f389-46ca-8ef7-bd9387e0689d-q)" d="M23.983 12.002c.15.202.495.099.495-.153v-1.43c0-2.48-1.06-4.81-2.89-6.43a.196.196 0 0 0-.25.001 8.6 8.6 0 0 0-2.475 3.834c-.096.307.091.624.396.73a10 10 0 0 1 4.724 3.448"/><g filter="url(#svg-7968f604-662e-4b7c-a4ba-6e62e675cc8a-r)"><path fill="#cd5c25" d="M19.562 20.281c-.41 0-.75-.34-.75-.75v-1.5c0-.41.34-.75.75-.75s.75.34.75.75v1.5c0 .41-.34.75-.75.75"/></g><g filter="url(#svg-9270d334-e578-43e4-905a-3978736247b9-s)"><path fill="#cd5c25" d="M11.982 20.281c-.41 0-.75-.34-.75-.75v-1.5c0-.41.34-.75.75-.75s.75.34.75.75v1.5c0 .41-.33.75-.75.75"/></g><path fill="url(#svg-d854f173-cada-4077-9fd1-fbbed76a2409-t)" d="M19.809 20c-.41 0-.75-.34-.75-.75v-1.5c0-.41.34-.75.75-.75s.75.34.75.75v1.5c0 .41-.34.75-.75.75"/><path fill="url(#svg-7d041fa7-8c1f-4c64-81b9-8735acd80391-u)" d="M19.809 20c-.41 0-.75-.34-.75-.75v-1.5c0-.41.34-.75.75-.75s.75.34.75.75v1.5c0 .41-.34.75-.75.75"/><path fill="url(#svg-970fa3ea-f9c3-46b6-a60f-73cc324706a8-v)" d="M12.229 20c-.41 0-.75-.34-.75-.75v-1.5c0-.41.34-.75.75-.75s.75.34.75.75v1.5c0 .41-.33.75-.75.75"/><path fill="url(#svg-869a691b-d48a-4e2c-b542-33e521deaaf4-w)" d="M12.229 20c-.41 0-.75-.34-.75-.75v-1.5c0-.41.34-.75.75-.75s.75.34.75.75v1.5c0 .41-.33.75-.75.75"/><g filter="url(#svg-d5a07e0f-8eea-4686-a60c-0cdaea8ddbfa-x)"><path stroke="url(#svg-05641705-1131-4f6f-9064-df2c84652b6e-y)" stroke-linecap="round" stroke-width=".25" d="M8.734 5.078c-.437.552-1.765 2.56-1.765 4.985v2.03"/></g><path fill="url(#svg-f762958a-63b3-4462-9fcd-8ea44ee5fd8a-z)" d="M13.989 5.95c-.65-1.43-1.6-2.75-2.79-3.71-.2-.16-.45-.24-.7-.24s-.5.08-.7.24c-1.21.97-2.18 2.26-2.83 3.71z"/><path fill="url(#svg-f8cb7e75-8848-4725-b598-e0e2da6e1f6f-A)" d="M13.989 5.95c-.65-1.43-1.6-2.75-2.79-3.71-.2-.16-.45-.24-.7-.24s-.5.08-.7.24c-1.21.97-2.18 2.26-2.83 3.71z"/><path fill="url(#svg-3a8f6495-683f-4479-af11-30fc9ff07aee-B)" d="M13.989 5.95c-.65-1.43-1.6-2.75-2.79-3.71-.2-.16-.45-.24-.7-.24s-.5.08-.7.24c-1.21.97-2.18 2.26-2.83 3.71z"/><path fill="url(#svg-32bc511c-aacb-482c-a6ac-de3c56fca141-C)" d="M29.139 20.99h-6.46c-1.75 0-3.46.55-4.88 1.57l-1.81 1.29-1.81-1.29a8.37 8.37 0 0 0-4.88-1.57h-6.47c2.01 5.27 7.11 9.01 13.08 9.01h.14c5.98-.01 11.08-3.75 13.09-9.01"/><path fill="url(#svg-2b7b9fa4-b587-4a44-b4c1-5167d5820e16-D)" d="M29.139 20.99h-6.46c-1.75 0-3.46.55-4.88 1.57l-1.81 1.29-1.81-1.29a8.37 8.37 0 0 0-4.88-1.57h-6.47c2.01 5.27 7.11 9.01 13.08 9.01h.14c5.98-.01 11.08-3.75 13.09-9.01"/><path fill="url(#svg-bc629d3f-9abc-4035-946a-62bd1c3de4a5-E)" d="M29.139 20.99h-6.46c-1.75 0-3.46.55-4.88 1.57l-1.81 1.29-1.81-1.29a8.37 8.37 0 0 0-4.88-1.57h-6.47c2.01 5.27 7.11 9.01 13.08 9.01h.14c5.98-.01 11.08-3.75 13.09-9.01"/><path fill="url(#svg-7f898a53-110c-4a9c-afcf-88e89e183b1e-F)" d="M29.139 20.99h-6.46c-1.75 0-3.46.55-4.88 1.57l-1.81 1.29-1.81-1.29a8.37 8.37 0 0 0-4.88-1.57h-6.47c2.01 5.27 7.11 9.01 13.08 9.01h.14c5.98-.01 11.08-3.75 13.09-9.01"/><path fill="url(#svg-19238f32-8501-4016-a73c-e042c8439452-G)" d="M29.139 20.99h-6.46c-1.75 0-3.46.55-4.88 1.57l-1.81 1.29-1.81-1.29a8.37 8.37 0 0 0-4.88-1.57h-6.47c2.01 5.27 7.11 9.01 13.08 9.01h.14c5.98-.01 11.08-3.75 13.09-9.01"/><path fill="url(#svg-ee22fccb-5898-4feb-bb97-d97e1292863a-H)" d="M29.139 20.99h-6.46c-1.75 0-3.46.55-4.88 1.57l-1.81 1.29-1.81-1.29a8.37 8.37 0 0 0-4.88-1.57h-6.47c2.01 5.27 7.11 9.01 13.08 9.01h.14c5.98-.01 11.08-3.75 13.09-9.01"/><g filter="url(#svg-59fcec6d-255c-45d7-95f9-379ecd12d778-I)"><path fill="#b66a7d" d="m15.17 23.953-1.109-1.11c-.54-.54-.157-1.452.61-1.452h2.218c.756 0 .138.475-.402 1.015l-.108 1.547a1 1 0 0 1-.097.083 2.08 2.08 0 0 0 2.081 2.039.49.49 0 1 1 0 .982 3.06 3.06 0 0 1-2.583-1.415 3.06 3.06 0 0 1-2.584 1.415.491.491 0 1 1 0-.982 2.08 2.08 0 0 0 2.08-2.032 1 1 0 0 1-.105-.09"/></g><path stroke="url(#svg-93811fa8-4cb3-47fe-a87c-4a78425f69b0-J)" stroke-linecap="round" d="M15.977 23.64c0 1.45-1.17 2.62-2.62 2.62"/><path stroke="url(#svg-55875a37-041f-47a3-af15-4fb2d5a966cd-K)" stroke-linecap="round" d="M15.977 23.64c0 1.45-1.17 2.62-2.62 2.62"/><path stroke="url(#svg-e1336394-9831-499e-8785-681cb80d84e2-L)" stroke-linecap="round" d="M15.977 23.64c0 1.45-1.17 2.62-2.62 2.62"/><path stroke="url(#svg-53e98921-cdc9-4a70-addb-46cb57d1de84-M)" stroke-linecap="round" d="M16 23.64c0 1.45 1.17 2.62 2.62 2.62"/><path stroke="url(#svg-f5fe6a31-92dc-460c-aa7d-4e19fc5f03c0-N)" stroke-linecap="round" d="M16 23.64c0 1.45 1.17 2.62 2.62 2.62"/><path fill="url(#svg-1dc4a966-6e39-4004-984d-0169df4ef12e-O)" d="m14.239 22.47 1.13 1.13c.34.34.89.34 1.23 0l1.13-1.13a.865.865 0 0 0-.61-1.48h-2.26c-.78 0-1.17.93-.62 1.48"/><path fill="url(#svg-6d83d238-31c2-4db8-8005-1aaa61064743-P)" d="m14.239 22.47 1.13 1.13c.34.34.89.34 1.23 0l1.13-1.13a.865.865 0 0 0-.61-1.48h-2.26c-.78 0-1.17.93-.62 1.48"/><path fill="url(#svg-4a51b899-20d6-4e72-9278-1e77ea65caeb-Q)" d="m14.239 22.47 1.13 1.13c.34.34.89.34 1.23 0l1.13-1.13a.865.865 0 0 0-.61-1.48h-2.26c-.78 0-1.17.93-.62 1.48"/><path fill="url(#svg-a1dd26c9-a44c-43f4-8328-15ca9e7cabb5-R)" d="m14.239 22.47 1.13 1.13c.34.34.89.34 1.23 0l1.13-1.13a.865.865 0 0 0-.61-1.48h-2.26c-.78 0-1.17.93-.62 1.48"/><path fill="url(#svg-c9869469-dcdb-4e72-9b98-efad2d8e728c-S)" d="M12.689 8.554c.304-.106.492-.422.395-.73a8.65 8.65 0 0 0-2.485-3.844.196.196 0 0 0-.25 0 8.64 8.64 0 0 0-2.87 6.42v1.461c0 .252.343.355.494.153a10 10 0 0 1 4.716-3.46"/><path fill="url(#svg-7144d498-59e0-4a7f-84e8-ebb160dd80bb-T)" d="M12.689 8.554c.304-.106.492-.422.395-.73a8.65 8.65 0 0 0-2.485-3.844.196.196 0 0 0-.25 0 8.64 8.64 0 0 0-2.87 6.42v1.461c0 .252.343.355.494.153a10 10 0 0 1 4.716-3.46"/><path fill="url(#svg-485c08d3-30b9-4cc9-b8fd-628ad10203a5-U)" d="M12.689 8.554c.304-.106.492-.422.395-.73a8.65 8.65 0 0 0-2.485-3.844.196.196 0 0 0-.25 0 8.64 8.64 0 0 0-2.87 6.42v1.461c0 .252.343.355.494.153a10 10 0 0 1 4.716-3.46"/><path fill="url(#svg-1ca35375-436e-4068-9338-4ed59854c93d-V)" d="M12.689 8.554c.304-.106.492-.422.395-.73a8.65 8.65 0 0 0-2.485-3.844.196.196 0 0 0-.25 0 8.64 8.64 0 0 0-2.87 6.42v1.461c0 .252.343.355.494.153a10 10 0 0 1 4.716-3.46"/><path fill="url(#svg-59c538e2-5e4b-4447-ba20-00cd94fb8e3e-W)" d="M12.689 8.554c.304-.106.492-.422.395-.73a8.65 8.65 0 0 0-2.485-3.844.196.196 0 0 0-.25 0 8.64 8.64 0 0 0-2.87 6.42v1.461c0 .252.343.355.494.153a10 10 0 0 1 4.716-3.46"/><path fill="url(#svg-7362231b-51a3-46a5-b4df-8d2cc4f17819-X)" d="M12.689 8.554c.304-.106.492-.422.395-.73a8.65 8.65 0 0 0-2.485-3.844.196.196 0 0 0-.25 0 8.64 8.64 0 0 0-2.87 6.42v1.461c0 .252.343.355.494.153a10 10 0 0 1 4.716-3.46"/><g filter="url(#svg-a51a0be9-38fd-4e3a-ab7d-0e69e90543e6-Y)"><circle cx="17.088" cy="21.836" r=".32" fill="#6a6566"/></g><g filter="url(#svg-ccab6580-b93e-4b8a-8d41-04368c4c6bd1-Z)"><path fill="url(#svg-1dfc6b69-a105-45be-919b-f7857be41c48-aa)" d="M28.998 19.678a.125.125 0 1 0-.21-.137zm-2.95 1.607a.125.125 0 0 0 .065.242zm2.74-1.744a1 1 0 0 1-.126.135 5 5 0 0 1-.258.217 12 12 0 0 1-.758.546c-.577.383-1.214.743-1.598.846l.065.242c.428-.115 1.096-.498 1.671-.88.29-.193.563-.39.776-.558q.16-.127.272-.23c.07-.066.131-.128.166-.182z"/></g><g filter="url(#svg-3a2b6c35-56e5-4c73-a82b-44987e17219b-ab)"><path fill="url(#svg-811d152e-56db-47d2-b5bd-bb053ed78940-ac)" d="M3.14 19.678a.125.125 0 1 1 .209-.137zm2.949 1.607a.125.125 0 0 1-.065.242zm-2.74-1.744q.022.038.126.135.102.094.257.217c.207.164.473.356.759.546.577.383 1.214.743 1.598.846l-.065.242c-.428-.115-1.096-.498-1.671-.88a12 12 0 0 1-.776-.558 5 5 0 0 1-.272-.23 1 1 0 0 1-.166-.182z"/></g><g filter="url(#svg-234734fc-ed6a-4fd2-8880-f0b16e41a4f7-ad)"><path stroke="#ffc177" d="M23.408 15.188c0 .218.011 2.46.031 2.659.213 2.081 1.5 3.122 3.126 3.122"/></g><g filter="url(#svg-bb202de0-df1c-413e-be0d-b7f012058626-ae)"><path stroke="#665d5f" stroke-linecap="round" stroke-width=".25" d="M21.676 2.664c.445.398 1.664 1.57 2.398 2.899"/></g><g filter="url(#svg-a9249fa2-dd39-417f-b365-23e16bd3499f-af)"><path stroke="#665d5f" stroke-linecap="round" stroke-width=".25" d="M10.58 2.664c.445.398 1.664 1.57 2.399 2.899"/></g><g filter="url(#svg-9e1b09f5-f783-47d3-8d34-6c0e1e07057c-ag)"><path stroke="url(#svg-9376495e-38df-41f9-ba58-5cd4dc1a666f-ah)" stroke-linecap="round" stroke-opacity=".5" stroke-width=".25" d="M21.511 2.664c-.445.398-1.664 1.57-2.398 2.899"/></g><g filter="url(#svg-69bacd18-0163-433b-9716-430c8419636c-ai)"><path stroke="url(#svg-03bbd1ad-3fd4-4d62-ab2f-a8f72c354203-aj)" stroke-linecap="round" stroke-opacity=".5" stroke-width=".25" d="M10.416 2.664c-.445.398-1.664 1.57-2.398 2.899"/></g><defs><linearGradient id="svg-8dd191b1-067f-42a0-9e49-7cdc4a2de559-f" x1="20.474" x2="20.474" y1="7.406" y2="-3.875" gradientUnits="userSpaceOnUse"><stop stop-color="#ffb444"/><stop offset="1" stop-color="#ffb444" stop-opacity="0"/></linearGradient><linearGradient id="svg-9b20b29b-a2e2-4547-8bfb-b6530c441adb-i" x1="21.494" x2="22.087" y1=".639" y2="5.664" gradientUnits="userSpaceOnUse"><stop offset=".191" stop-color="#5f5254"/><stop offset="1" stop-color="#2e2127"/></linearGradient><linearGradient id="svg-70f62e1f-7a45-4f9d-952b-f5af8db1482b-j" x1="22.058" x2="21.957" y1="3.084" y2=".544" gradientUnits="userSpaceOnUse"><stop offset=".147" stop-color="#34222c" stop-opacity="0"/><stop offset=".873" stop-color="#34222c"/></linearGradient><linearGradient id="svg-e523c332-8c66-456a-af30-20d0b5e6ac77-k" x1="23.283" x2="23.283" y1="7.285" y2="4.5" gradientUnits="userSpaceOnUse"><stop stop-color="#552d52"/><stop offset="1" stop-color="#552d52" stop-opacity="0"/></linearGradient><linearGradient id="svg-19abcdef-f1a6-4c00-9281-7818d617023b-l" x1="23.346" x2="20.034" y1="13.75" y2="5.188" gradientUnits="userSpaceOnUse"><stop stop-color="#fc5737"/><stop offset="1" stop-color="#ef7e3f"/></linearGradient><linearGradient id="svg-a3ee020d-4c22-4122-9485-6181ead6ba84-m" x1="25.034" x2="22.909" y1="12.73" y2="7.688" gradientUnits="userSpaceOnUse"><stop stop-color="#e83525"/><stop offset="1" stop-color="#e83525" stop-opacity="0"/></linearGradient><linearGradient id="svg-e476c6b5-8f45-40a7-a889-e6e95045dbc1-n" x1="24.784" x2="22.627" y1="7.688" y2="7.688" gradientUnits="userSpaceOnUse"><stop stop-color="#e83525"/><stop offset="1" stop-color="#e83525" stop-opacity="0"/></linearGradient><linearGradient id="svg-32d69496-b71a-40ca-9702-681f2128a003-o" x1="25.284" x2="22.346" y1="4.563" y2="7.375" gradientUnits="userSpaceOnUse"><stop stop-color="#bf5733"/><stop offset="1" stop-color="#bf5733" stop-opacity="0"/></linearGradient><linearGradient id="svg-53d3c5fc-f389-46ca-8ef7-bd9387e0689d-q" x1="18.709" x2="20.034" y1="6.406" y2="7.344" gradientUnits="userSpaceOnUse"><stop stop-color="#ff894c"/><stop offset="1" stop-color="#ff894c" stop-opacity="0"/></linearGradient><linearGradient id="svg-d854f173-cada-4077-9fd1-fbbed76a2409-t" x1="20.471" x2="19.646" y1="18.5" y2="18.5" gradientUnits="userSpaceOnUse"><stop offset=".225" stop-color="#594c4f"/><stop offset="1" stop-color="#392833"/></linearGradient><linearGradient id="svg-7d041fa7-8c1f-4c64-81b9-8735acd80391-u" x1="20.793" x2="20.793" y1="20.525" y2="18.935" gradientUnits="userSpaceOnUse"><stop stop-color="#552d52"/><stop offset="1" stop-color="#552d52" stop-opacity="0"/></linearGradient><linearGradient id="svg-970fa3ea-f9c3-46b6-a60f-73cc324706a8-v" x1="12.891" x2="12.066" y1="18.5" y2="18.5" gradientUnits="userSpaceOnUse"><stop offset=".225" stop-color="#594c4f"/><stop offset="1" stop-color="#392833"/></linearGradient><linearGradient id="svg-869a691b-d48a-4e2c-b542-33e521deaaf4-w" x1="13.213" x2="13.213" y1="20.525" y2="18.935" gradientUnits="userSpaceOnUse"><stop stop-color="#552d52"/><stop offset="1" stop-color="#552d52" stop-opacity="0"/></linearGradient><linearGradient id="svg-05641705-1131-4f6f-9064-df2c84652b6e-y" x1="8.734" x2="8.734" y1="9.563" y2="-1.719" gradientUnits="userSpaceOnUse"><stop stop-color="#ffb444"/><stop offset="1" stop-color="#ffb444" stop-opacity="0"/></linearGradient><linearGradient id="svg-f762958a-63b3-4462-9fcd-8ea44ee5fd8a-z" x1="10.479" x2="11.062" y1=".656" y2="5.619" gradientUnits="userSpaceOnUse"><stop offset=".191" stop-color="#5f5254"/><stop offset="1" stop-color="#2e2127"/></linearGradient><linearGradient id="svg-f8cb7e75-8848-4725-b598-e0e2da6e1f6f-A" x1="11.039" x2="10.94" y1="3.07" y2=".563" gradientUnits="userSpaceOnUse"><stop offset=".147" stop-color="#34222c" stop-opacity="0"/><stop offset=".873" stop-color="#34222c"/></linearGradient><linearGradient id="svg-3a8f6495-683f-4479-af11-30fc9ff07aee-B" x1="12.255" x2="12.255" y1="7.219" y2="4.469" gradientUnits="userSpaceOnUse"><stop stop-color="#552d52"/><stop offset="1" stop-color="#552d52" stop-opacity="0"/></linearGradient><linearGradient id="svg-e1336394-9831-499e-8785-681cb80d84e2-L" x1="15.842" x2="15.139" y1="24.53" y2="25.545" gradientUnits="userSpaceOnUse"><stop stop-color="#2f172a"/><stop offset="1" stop-color="#2f172a" stop-opacity="0"/></linearGradient><linearGradient id="svg-1dc4a966-6e39-4004-984d-0169df4ef12e-O" x1="17.088" x2="14.555" y1="20.752" y2="22.993" gradientUnits="userSpaceOnUse"><stop offset=".191" stop-color="#5f5254"/><stop offset="1" stop-color="#2e2127"/></linearGradient><linearGradient id="svg-4a51b899-20d6-4e72-9278-1e77ea65caeb-Q" x1="16.303" x2="16.303" y1="21.766" y2="20.378" gradientUnits="userSpaceOnUse"><stop offset=".147" stop-color="#34222c" stop-opacity="0"/><stop offset=".873" stop-color="#34222c"/></linearGradient><linearGradient id="svg-a1dd26c9-a44c-43f4-8328-15ca9e7cabb5-R" x1="16.997" x2="16.997" y1="24.096" y2="21.996" gradientUnits="userSpaceOnUse"><stop stop-color="#552d52"/><stop offset="1" stop-color="#552d52" stop-opacity="0"/></linearGradient><linearGradient id="svg-c9869469-dcdb-4e72-9b98-efad2d8e728c-S" x1="12.108" x2="8.326" y1="13.762" y2="6.385" gradientUnits="userSpaceOnUse"><stop stop-color="#fc5737"/><stop offset="1" stop-color="#ef7e3f"/></linearGradient><linearGradient id="svg-7144d498-59e0-4a7f-84e8-ebb160dd80bb-T" x1="13.239" x2="10.348" y1="11.063" y2="7.446" gradientUnits="userSpaceOnUse"><stop offset=".139" stop-color="#e83525"/><stop offset="1" stop-color="#e83525" stop-opacity="0"/></linearGradient><linearGradient id="svg-485c08d3-30b9-4cc9-b8fd-628ad10203a5-U" x1="13.543" x2="11.39" y1="7.686" y2="7.686" gradientUnits="userSpaceOnUse"><stop stop-color="#e83525"/><stop offset="1" stop-color="#e83525" stop-opacity="0"/></linearGradient><linearGradient id="svg-1ca35375-436e-4068-9338-4ed59854c93d-V" x1="13.239" x2="11.104" y1="5.875" y2="7.364" gradientUnits="userSpaceOnUse"><stop stop-color="#bf5733"/><stop offset="1" stop-color="#bf5733" stop-opacity="0"/></linearGradient><linearGradient id="svg-7362231b-51a3-46a5-b4df-8d2cc4f17819-X" x1="7.479" x2="9.6" y1="6.402" y2="7.554" gradientUnits="userSpaceOnUse"><stop stop-color="#ff894c"/><stop offset="1" stop-color="#ff894c" stop-opacity="0"/></linearGradient><linearGradient id="svg-1dfc6b69-a105-45be-919b-f7857be41c48-aa" x1="29.205" x2="26.783" y1="19.609" y2="21.125" gradientUnits="userSpaceOnUse"><stop offset=".211" stop-color="#ffcb8c"/><stop offset="1" stop-color="#ffcb8c" stop-opacity="0"/></linearGradient><linearGradient id="svg-811d152e-56db-47d2-b5bd-bb053ed78940-ac" x1="2.931" x2="6.627" y1="19.609" y2="21.875" gradientUnits="userSpaceOnUse"><stop offset=".211" stop-color="#ffd199"/><stop offset="1" stop-color="#ffcb8c" stop-opacity="0"/></linearGradient><linearGradient id="svg-9376495e-38df-41f9-ba58-5cd4dc1a666f-ah" x1="21.511" x2="19.246" y1="2.664" y2="5.672" gradientUnits="userSpaceOnUse"><stop stop-color="#665d5f"/><stop offset="1" stop-color="#665d5f" stop-opacity="0"/></linearGradient><linearGradient id="svg-03bbd1ad-3fd4-4d62-ab2f-a8f72c354203-aj" x1="10.416" x2="8.15" y1="2.664" y2="5.672" gradientUnits="userSpaceOnUse"><stop stop-color="#665d5f"/><stop offset="1" stop-color="#665d5f" stop-opacity="0"/></linearGradient><radialGradient id="svg-5e5475ca-c130-4f35-8258-9dfb7cb6d273-a" cx="0" cy="0" r="1" gradientTransform="rotate(136.338 7.575 10.288)scale(20.8211)" gradientUnits="userSpaceOnUse"><stop stop-color="#ffc177"/><stop offset=".285" stop-color="#ff8d28"/><stop offset=".611" stop-color="#f4763d"/></radialGradient><radialGradient id="svg-3bf16ab3-290f-43f2-8c49-9a9e43070648-b" cx="0" cy="0" r="1" gradientTransform="rotate(134.433 10.804 15.2)scale(4.46383 3.0354)" gradientUnits="userSpaceOnUse"><stop stop-color="#e78327"/><stop offset="1" stop-color="#f4953d" stop-opacity="0"/></radialGradient><radialGradient id="svg-88ac9dbc-b0ff-4713-aad0-5eb0892805d4-c" cx="0" cy="0" r="1" gradientTransform="rotate(32.638 -32.652 13.156)scale(3.30276 1.76965)" gradientUnits="userSpaceOnUse"><stop stop-color="#c9510e"/><stop offset="1" stop-color="#c9510e" stop-opacity="0"/></radialGradient><radialGradient id="svg-f36f1c3b-1bb3-415b-ad8b-6076eef972af-d" cx="0" cy="0" r="1" gradientTransform="matrix(0 -13.4375 12.9825 0 15.988 19.875)" gradientUnits="userSpaceOnUse"><stop offset=".795" stop-color="#f46639" stop-opacity="0"/><stop offset="1" stop-color="#f46639"/></radialGradient><radialGradient id="svg-90cd4873-92f6-4bec-984a-c3b6b7de8731-p" cx="0" cy="0" r="1" gradientTransform="rotate(-22.746 32.658 -41.818)scale(2.18223 4.8172)" gradientUnits="userSpaceOnUse"><stop stop-color="#ff894c"/><stop offset="1" stop-color="#ff894c" stop-opacity="0"/></radialGradient><radialGradient id="svg-32bc511c-aacb-482c-a6ac-de3c56fca141-C" cx="0" cy="0" r="1" gradientTransform="rotate(116.074 5.331 16.265)scale(14.3337 20.0167)" gradientUnits="userSpaceOnUse"><stop offset=".084" stop-color="#ffdfa1"/><stop offset="1" stop-color="#eba582"/></radialGradient><radialGradient id="svg-2b7b9fa4-b587-4a44-b4c1-5167d5820e16-D" cx="0" cy="0" r="1" gradientTransform="matrix(0 10.01 -21.575 0 15.983 20.99)" gradientUnits="userSpaceOnUse"><stop offset=".513" stop-color="#d87da0" stop-opacity="0"/><stop offset="1" stop-color="#d87da0"/></radialGradient><radialGradient id="svg-bc629d3f-9abc-4035-946a-62bd1c3de4a5-E" cx="0" cy="0" r="1" gradientTransform="rotate(128.469 2.926 14.352)scale(13.5833 44.3384)" gradientUnits="userSpaceOnUse"><stop offset=".589" stop-color="#d87da0" stop-opacity="0"/><stop offset="1" stop-color="#d87da0"/></radialGradient><radialGradient id="svg-7f898a53-110c-4a9c-afcf-88e89e183b1e-F" cx="0" cy="0" r="1" gradientTransform="matrix(0 10.5725 -16.07 0 15.983 20.99)" gradientUnits="userSpaceOnUse"><stop offset=".792" stop-color="#c55188" stop-opacity="0"/><stop offset="1" stop-color="#c55188"/></radialGradient><radialGradient id="svg-19238f32-8501-4016-a73c-e042c8439452-G" cx="0" cy="0" r="1" gradientTransform="rotate(118.156 6.295 17.104)scale(5.03309 7.12647)" gradientUnits="userSpaceOnUse"><stop stop-color="#f9e58c"/><stop offset="1" stop-color="#f9e58c" stop-opacity="0"/></radialGradient><radialGradient id="svg-ee22fccb-5898-4feb-bb97-d97e1292863a-H" cx="0" cy="0" r="1" gradientTransform="matrix(6.26248 -6.5 8.1083 7.812 9.721 31.188)" gradientUnits="userSpaceOnUse"><stop stop-color="#d87da0"/><stop offset="1" stop-color="#d87da0" stop-opacity="0"/></radialGradient><radialGradient id="svg-93811fa8-4cb3-47fe-a87c-4a78425f69b0-J" cx="0" cy="0" r="1" gradientTransform="rotate(54.392 -16.675 25.479)scale(2.97885 3.73897)" gradientUnits="userSpaceOnUse"><stop stop-color="#261317"/><stop offset=".589" stop-color="#4e4647"/><stop offset=".747" stop-color="#2f172a"/></radialGradient><radialGradient id="svg-55875a37-041f-47a3-af15-4fb2d5a966cd-K" cx="0" cy="0" r="1" gradientTransform="rotate(231.483 13.371 9.122)scale(.97853 1.62106)" gradientUnits="userSpaceOnUse"><stop stop-color="#261317"/><stop offset="1" stop-color="#261317" stop-opacity="0"/></radialGradient><radialGradient id="svg-53e98921-cdc9-4a70-addb-46cb57d1de84-M" cx="0" cy="0" r="1" gradientTransform="rotate(122.471 2.57 17.209)scale(3.05588 4.35358)" gradientUnits="userSpaceOnUse"><stop stop-color="#261317"/><stop offset=".589" stop-color="#4e4647"/><stop offset=".747" stop-color="#2f172a"/></radialGradient><radialGradient id="svg-f5fe6a31-92dc-460c-aa7d-4e19fc5f03c0-N" cx="0" cy="0" r="1" gradientTransform="rotate(135.988 3.893 15.823)scale(1.28182 2.1235)" gradientUnits="userSpaceOnUse"><stop stop-color="#261317"/><stop offset="1" stop-color="#261317" stop-opacity="0"/></radialGradient><radialGradient id="svg-6d83d238-31c2-4db8-8005-1aaa61064743-P" cx="0" cy="0" r="1" gradientTransform="rotate(132.349 3.38 14.363)scale(1.80048 3.30126)" gradientUnits="userSpaceOnUse"><stop offset=".463" stop-color="#34222c" stop-opacity="0"/><stop offset=".956" stop-color="#34222c"/></radialGradient><radialGradient id="svg-59c538e2-5e4b-4447-ba20-00cd94fb8e3e-W" cx="0" cy="0" r="1" gradientTransform="matrix(3 .5625 -2.35332 12.55098 6.096 7.125)" gradientUnits="userSpaceOnUse"><stop stop-color="#ff894c"/><stop offset="1" stop-color="#ff894c" stop-opacity="0"/></radialGradient><filter id="svg-ae40d816-e253-4fc3-b167-17c0c05d39ff-e" width="3.328" height="5.328" x="17.721" y="3.266" color-interpolation-filters="sRGB" filterUnits="userSpaceOnUse"><feFlood flood-opacity="0" result="BackgroundImageFix"/><feBlend in="SourceGraphic" in2="BackgroundImageFix" result="shape"/><feGaussianBlur result="effect1_foregroundBlur_28327_1940" stdDeviation=".25"/></filter><filter id="svg-a0d6c2c4-ae92-405f-83f1-f2097c379ba3-g" width="2.75" height="8.125" x="23.449" y="4.569" color-interpolation-filters="sRGB" filterUnits="userSpaceOnUse"><feFlood flood-opacity="0" result="BackgroundImageFix"/><feBlend in="SourceGraphic" in2="BackgroundImageFix" result="shape"/><feGaussianBlur result="effect1_foregroundBlur_28327_1940" stdDeviation=".25"/></filter><filter id="svg-b6922deb-d805-41fb-af51-031e5a8a8fb2-h" width="2.764" height="4.853" x="11.864" y="3.725" color-interpolation-filters="sRGB" filterUnits="userSpaceOnUse"><feFlood flood-opacity="0" result="BackgroundImageFix"/><feBlend in="SourceGraphic" in2="BackgroundImageFix" result="shape"/><feGaussianBlur result="effect1_foregroundBlur_28327_1940" stdDeviation=".25"/></filter><filter id="svg-7968f604-662e-4b7c-a4ba-6e62e675cc8a-r" width="3" height="4.5" x="18.062" y="16.531" color-interpolation-filters="sRGB" filterUnits="userSpaceOnUse"><feFlood flood-opacity="0" result="BackgroundImageFix"/><feBlend in="SourceGraphic" in2="BackgroundImageFix" result="shape"/><feGaussianBlur result="effect1_foregroundBlur_28327_1940" stdDeviation=".375"/></filter><filter id="svg-9270d334-e578-43e4-905a-3978736247b9-s" width="3" height="4.5" x="10.482" y="16.531" color-interpolation-filters="sRGB" filterUnits="userSpaceOnUse"><feFlood flood-opacity="0" result="BackgroundImageFix"/><feBlend in="SourceGraphic" in2="BackgroundImageFix" result="shape"/><feGaussianBlur result="effect1_foregroundBlur_28327_1940" stdDeviation=".375"/></filter><filter id="svg-d5a07e0f-8eea-4686-a60c-0cdaea8ddbfa-x" width="3.016" height="8.231" x="6.344" y="4.453" color-interpolation-filters="sRGB" filterUnits="userSpaceOnUse"><feFlood flood-opacity="0" result="BackgroundImageFix"/><feBlend in="SourceGraphic" in2="BackgroundImageFix" result="shape"/><feGaussianBlur result="effect1_foregroundBlur_28327_1940" stdDeviation=".25"/></filter><filter id="svg-59fcec6d-255c-45d7-95f9-379ecd12d778-I" width="7.65" height="7.166" x="11.955" y="20.641" color-interpolation-filters="sRGB" filterUnits="userSpaceOnUse"><feFlood flood-opacity="0" result="BackgroundImageFix"/><feBlend in="SourceGraphic" in2="BackgroundImageFix" result="shape"/><feGaussianBlur result="effect1_foregroundBlur_28327_1940" stdDeviation=".375"/></filter><filter id="svg-a51a0be9-38fd-4e3a-ab7d-0e69e90543e6-Y" width="1.641" height="1.641" x="16.268" y="21.016" color-interpolation-filters="sRGB" filterUnits="userSpaceOnUse"><feFlood flood-opacity="0" result="BackgroundImageFix"/><feBlend in="SourceGraphic" in2="BackgroundImageFix" result="shape"/><feGaussianBlur result="effect1_foregroundBlur_28327_1940" stdDeviation=".25"/></filter><filter id="svg-ccab6580-b93e-4b8a-8d41-04368c4c6bd1-Z" width="4.063" height="3.047" x="25.455" y="18.984" color-interpolation-filters="sRGB" filterUnits="userSpaceOnUse"><feFlood flood-opacity="0" result="BackgroundImageFix"/><feBlend in="SourceGraphic" in2="BackgroundImageFix" result="shape"/><feGaussianBlur result="effect1_foregroundBlur_28327_1940" stdDeviation=".25"/></filter><filter id="svg-3a2b6c35-56e5-4c73-a82b-44987e17219b-ab" width="5.063" height="4.047" x="2.119" y="18.484" color-interpolation-filters="sRGB" filterUnits="userSpaceOnUse"><feFlood flood-opacity="0" result="BackgroundImageFix"/><feBlend in="SourceGraphic" in2="BackgroundImageFix" result="shape"/><feGaussianBlur result="effect1_foregroundBlur_28327_1940" stdDeviation=".5"/></filter><filter id="svg-234734fc-ed6a-4fd2-8880-f0b16e41a4f7-ad" width="8.656" height="11.281" x="20.408" y="12.688" color-interpolation-filters="sRGB" filterUnits="userSpaceOnUse"><feFlood flood-opacity="0" result="BackgroundImageFix"/><feBlend in="SourceGraphic" in2="BackgroundImageFix" result="shape"/><feGaussianBlur result="effect1_foregroundBlur_28327_1940" stdDeviation="1.25"/></filter><filter id="svg-bb202de0-df1c-413e-be0d-b7f012058626-ae" width="3.648" height="4.148" x="21.05" y="2.039" color-interpolation-filters="sRGB" filterUnits="userSpaceOnUse"><feFlood flood-opacity="0" result="BackgroundImageFix"/><feBlend in="SourceGraphic" in2="BackgroundImageFix" result="shape"/><feGaussianBlur result="effect1_foregroundBlur_28327_1940" stdDeviation=".25"/></filter><filter id="svg-a9249fa2-dd39-417f-b365-23e16bd3499f-af" width="3.648" height="4.148" x="9.955" y="2.039" color-interpolation-filters="sRGB" filterUnits="userSpaceOnUse"><feFlood flood-opacity="0" result="BackgroundImageFix"/><feBlend in="SourceGraphic" in2="BackgroundImageFix" result="shape"/><feGaussianBlur result="effect1_foregroundBlur_28327_1940" stdDeviation=".25"/></filter><filter id="svg-9e1b09f5-f783-47d3-8d34-6c0e1e07057c-ag" width="3.648" height="4.148" x="18.488" y="2.039" color-interpolation-filters="sRGB" filterUnits="userSpaceOnUse"><feFlood flood-opacity="0" result="BackgroundImageFix"/><feBlend in="SourceGraphic" in2="BackgroundImageFix" result="shape"/><feGaussianBlur result="effect1_foregroundBlur_28327_1940" stdDeviation=".25"/></filter><filter id="svg-69bacd18-0163-433b-9716-430c8419636c-ai" width="3.648" height="4.148" x="7.393" y="2.039" color-interpolation-filters="sRGB" filterUnits="userSpaceOnUse"><feFlood flood-opacity="0" result="BackgroundImageFix"/><feBlend in="SourceGraphic" in2="BackgroundImageFix" result="shape"/><feGaussianBlur result="effect1_foregroundBlur_28327_1940" stdDeviation=".25"/></filter></defs></svg>